<?xml version="1.0" encoding="UTF-8"?>
<svg width="752pt" height="752pt" version="1.1" viewBox="0 0 752 752" xmlns="http://www.w3.org/2000/svg">
 <path d="m375.96 161.39c-78.996 0-143.17 64.227-143.17 143.23 0 45.77 21.625 86.453 55.109 112.67 0.96875 1.5273 2.4648 2.6484 4.2031 3.1484 23.594 17.125 52.508 27.344 83.855 27.344 32.109 0 61.68-10.738 85.59-28.629 0.003906-0.003907 0.015624 0.003906 0.015624 0h-0.003906c0.46094-0.26953 0.89453-0.58984 1.2852-0.95313 34.18-26.18 56.336-67.273 56.336-113.58 0-78.996-64.227-143.23-143.23-143.23zm0 14.801c71 0 128.43 57.426 128.43 128.43 0 36.801-15.5 69.848-40.25 93.234-4.8242-32.277-26.863-58.82-56.539-70.066 17.633-10.746 29.496-30.098 29.496-52.172 0-33.652-27.48-61.078-61.133-61.078s-61.062 27.422-61.062 61.078c0 22.074 11.84 41.426 29.453 52.172-29.672 11.25-51.684 37.805-56.496 70.094-24.75-23.387-40.25-56.449-40.25-93.262 0-71 57.355-128.43 128.35-128.43zm0 53.141c25.656 0 46.336 20.621 46.336 46.277s-20.68 46.32-46.336 46.32-46.262-20.664-46.262-46.32 20.609-46.277 46.262-46.277zm0 107.4c40.711 0 73.336 32.02 74.359 72.465-20.984 14.922-46.605 23.773-74.359 23.773-27.762 0-53.363-8.8594-74.344-23.789 1.0312-40.441 33.637-72.449 74.344-72.449zm-150.61 130.59c-2.9648 0.18359-5.5352 2.125-6.5195 4.9258l-12.398 35.727-37.824 0.73438c-3.1328 0.089844-5.8711 2.1445-6.8359 5.1289-0.96094 2.9883 0.066406 6.2539 2.5586 8.1562l30.074 22.852-10.953 36.176v-0.003906c-0.91406 3.0117 0.18359 6.2734 2.7266 8.125 2.5469 1.8555 5.9883 1.8945 8.5742 0.097656l31.031-21.594 31.016 21.605-0.003907 0.003906c2.5898 1.8359 6.0625 1.8125 8.6289-0.050781 2.5703-1.8633 3.6602-5.1602 2.7188-8.1875l-10.953-36.176 30.133-22.82c2.5078-1.9023 3.5391-5.1875 2.5664-8.1836-0.97656-2.9961-3.7383-5.0469-6.8906-5.1133l-37.793-0.78125-12.371-35.699v0.003906c-0.92969-2.625-3.25-4.5078-6.0117-4.8711-0.48828-0.066406-0.98047-0.085938-1.4727-0.054688zm150.16 0c-2.9648 0.18359-5.5312 2.125-6.5195 4.9258l-12.398 35.727-37.824 0.73438c-3.1328 0.089844-5.8711 2.1445-6.832 5.1289-0.96094 2.9883 0.0625 6.2539 2.5547 8.1562l30.074 22.852-10.953 36.176v-0.003906c-0.91016 3.0117 0.18359 6.2734 2.7305 8.125 2.5469 1.8555 5.9844 1.8945 8.5703 0.097656l31.031-21.594 31.016 21.605v0.003906c2.5898 1.8359 6.0586 1.8164 8.6289-0.050781 2.5664-1.8633 3.6602-5.1602 2.7148-8.1875l-10.953-36.176 30.133-22.82c2.5117-1.9023 3.543-5.1875 2.5664-8.1836-0.97266-2.9961-3.7383-5.0469-6.8867-5.1133l-37.793-0.78125-12.371-35.699v0.003906c-0.92969-2.625-3.2539-4.5078-6.0156-4.8711-0.48828-0.066406-0.98047-0.085938-1.4727-0.054688zm150.16 0c-2.9648 0.18359-5.5312 2.125-6.5156 4.9258l-12.398 35.727-37.824 0.73438c-3.1367 0.089844-5.875 2.1445-6.8359 5.1289-0.96094 2.9883 0.0625 6.2539 2.5586 8.1562l30.074 22.852-10.953 36.176v-0.003906c-0.91406 3.0117 0.17969 6.2734 2.7266 8.125 2.5469 1.8555 5.9883 1.8945 8.5742 0.097656l31.031-21.594 31.016 21.605-0.003906 0.003906c2.5898 1.8359 6.0625 1.8125 8.6289-0.050781s3.6602-5.1602 2.7188-8.1875l-10.953-36.176 30.133-22.82h-0.003906c2.5117-1.9023 3.543-5.1875 2.5703-8.1836-0.97656-2.9961-3.7383-5.0508-6.8906-5.1133l-37.793-0.78125-12.371-35.699v0.003906c-0.92969-2.625-3.25-4.5078-6.0117-4.8711-0.48828-0.066406-0.98438-0.085938-1.4766-0.054688zm-299.85 29.902 7.0977 20.48v-0.003906c1.0234 2.9062 3.7422 4.8789 6.8242 4.9453l21.68 0.43359-17.258 13.094c-2.4609 1.8633-3.5039 5.0625-2.6172 8.0195l6.2305 20.727-17.734-12.328c-2.5391-1.7852-5.918-1.7969-8.4688-0.03125l-17.793 12.344 6.2852-20.695h0.003906c0.89062-2.957-0.14453-6.1523-2.6016-8.0234l-17.27-13.078 21.68-0.43359-0.003907-0.003906c3.1016-0.066407 5.832-2.0625 6.8359-5zm150.16 0 7.0977 20.48 0.003906-0.003906c1.0234 2.9062 3.7383 4.8789 6.8203 4.9453l21.68 0.43359-17.258 13.094c-2.4609 1.8633-3.5039 5.0625-2.6133 8.0195l6.2305 20.727-17.734-12.328h-0.003906c-2.5352-1.7852-5.918-1.7969-8.4688-0.03125l-17.793 12.344 6.2852-20.695h0.003906c0.89062-2.957-0.14453-6.1523-2.6016-8.0234l-17.27-13.078 21.68-0.43359v-0.003906c3.1016-0.066407 5.8281-2.0625 6.8359-5zm150.16 0 7.0977 20.48 0.003906-0.003906c1.0234 2.9062 3.7422 4.8789 6.8242 4.9453l21.68 0.43359-17.258 13.094c-2.4609 1.8633-3.5039 5.0625-2.6172 8.0195l6.2305 20.727-17.734-12.328c-2.5391-1.7852-5.918-1.7969-8.4688-0.03125l-17.793 12.344 6.2852-20.695h0.003906c0.89062-2.9531-0.14844-6.1523-2.6016-8.0234l-17.27-13.078 21.68-0.43359h-0.003907c3.1016-0.070313 5.832-2.0664 6.8359-5z" fill="#1170a1"/>
</svg>
