<?xml version="1.0" encoding="UTF-8"?>
<svg width="752pt" height="752pt" version="1.1" viewBox="0 0 752 752" xmlns="http://www.w3.org/2000/svg">
 <g fill="#1170a1">
  <path d="m294.1 246.08-2.8906 17.73c-0.45703 2.7969 0.72266 5.6094 3.043 7.2422 2.3164 1.6328 5.3594 1.7969 7.8398 0.42578l14.715-8.1289 14.711 8.1289c2.4805 1.3711 5.5273 1.207 7.8438-0.42578 2.3164-1.6328 3.4961-4.4453 3.0391-7.2422l-2.8906-17.734 12.191-12.496v0.003907c1.9375-1.9844 2.6016-4.8867 1.7188-7.5156-0.87891-2.6289-3.1562-4.5469-5.8984-4.9648l-16.547-2.5273-7.4688-15.914c-1.2188-2.5977-3.832-4.2539-6.6992-4.2539-2.8711 0-5.4805 1.6562-6.6992 4.2539l-7.4688 15.914-16.547 2.5273c-2.7422 0.41797-5.0195 2.3359-5.9023 4.9648-0.87891 2.6289-0.21484 5.5312 1.7188 7.5156zm14.676-13.469 0.003906-0.003906c2.4375-0.37109 4.5312-1.9336 5.582-4.168l2.4453-5.2109 2.4453 5.2109c1.0469 2.2344 3.1406 3.7969 5.582 4.168l6.2148 0.95312-4.7422 4.8555v0.003906c-1.6367 1.6797-2.3828 4.0391-2.0039 6.3594l1.0391 6.3789-4.957-2.7383c-2.2266-1.2344-4.9336-1.2344-7.1602 0l-4.957 2.7383 1.0391-6.3789c0.38281-2.3203-0.36328-4.6797-2.0039-6.3594l-4.7383-4.8555z"/>
  <path d="m405.6 376v-184.99c-0.003906-3.9219-1.5664-7.6836-4.3398-10.457-2.7773-2.7773-6.5391-4.3359-10.461-4.3398h-147.99c-3.9258 0.003906-7.6875 1.5625-10.461 4.3398-2.7734 2.7734-4.3359 6.5352-4.3398 10.457v184.99c0.003907 3.9258 1.5664 7.6875 4.3398 10.461 2.7734 2.7734 6.5352 4.3359 10.461 4.3398h147.99c3.9219-0.003906 7.6836-1.5664 10.461-4.3398 2.7734-2.7734 4.3359-6.5352 4.3398-10.461zm-162.79-184.99h147.99l0.011719 184.99h-29.609v-14.797c-0.019531-7.0273-2.043-13.902-5.8281-19.82-3.7852-5.9219-9.1836-10.637-15.555-13.598 4.2305-5.1953 6.5547-11.684 6.582-18.383 0-10.574-5.6406-20.344-14.801-25.633-9.1562-5.2852-20.438-5.2852-29.598 0-9.1562 5.2891-14.801 15.059-14.801 25.633 0.03125 6.6992 2.3516 13.188 6.582 18.383-6.3711 2.9609-11.766 7.6758-15.551 13.598-3.7891 5.918-5.8086 12.793-5.8281 19.82v14.801l-29.598-0.003906zm73.996 133.2c-3.9258 0-7.6914-1.5586-10.465-4.3359-2.7773-2.7734-4.3359-6.5391-4.3359-10.465 0-3.9219 1.5586-7.6875 4.3359-10.465 2.7734-2.7734 6.5391-4.332 10.465-4.332 3.9258 0 7.6875 1.5586 10.465 4.332 2.7734 2.7773 4.332 6.543 4.332 10.465-0.003906 3.9258-1.5625 7.6875-4.3398 10.461-2.7734 2.7734-6.5352 4.3359-10.457 4.3398zm-7.3984 14.801h14.801-0.003906c5.8867 0.003906 11.527 2.3477 15.691 6.5078 4.1602 4.1602 6.5 9.8047 6.5078 15.691v14.801l-59.199-0.003906v-14.797c0.007813-5.8867 2.3477-11.531 6.5117-15.691 4.1602-4.1602 9.8047-6.5039 15.688-6.5078z"/>
  <path d="m154.01 605.39h325.59c1.9609 0.003906 3.8438-0.77734 5.2344-2.1641 1.3867-1.3906 2.1641-3.2695 2.1641-5.2344v-443.98c0-1.9648-0.77734-3.8477-2.1641-5.2344-1.3906-1.3867-3.2734-2.168-5.2344-2.168h-325.59c-1.9648 0-3.8477 0.78125-5.2344 2.168-1.3867 1.3867-2.168 3.2695-2.168 5.2344v443.98c0 1.9648 0.78125 3.8438 2.168 5.2344 1.3867 1.3867 3.2695 2.168 5.2344 2.1641zm7.3984-443.98h310.79v429.18h-310.79z"/>
  <path d="m235.41 413h-29.598c-1.9648 0-3.8438 0.77734-5.2344 2.168-1.3867 1.3867-2.168 3.2695-2.1641 5.2305v29.602c-0.003906 1.9609 0.77734 3.8438 2.1641 5.2305 1.3906 1.3906 3.2695 2.168 5.2344 2.168h29.598c1.9648 0 3.8477-0.77734 5.2344-2.168 1.3867-1.3867 2.168-3.2695 2.168-5.2305v-29.602c0-1.9609-0.78125-3.8438-2.168-5.2305-1.3867-1.3906-3.2695-2.168-5.2344-2.168zm-7.3984 29.598h-14.801v-14.797h14.801z"/>
  <path d="m235.41 472.2h-29.598c-1.9648-0.003907-3.8438 0.77734-5.2344 2.1641-1.3867 1.3906-2.168 3.2695-2.1641 5.2344v29.598c-0.003906 1.9648 0.77734 3.8477 2.1641 5.2344 1.3906 1.3867 3.2695 2.168 5.2344 2.168h29.598c1.9648 0 3.8477-0.78125 5.2344-2.168 1.3867-1.3867 2.168-3.2695 2.168-5.2344v-29.598c0-1.9648-0.78125-3.8438-2.168-5.2344-1.3867-1.3867-3.2695-2.168-5.2344-2.1641zm-7.3984 29.598h-14.801v-14.801h14.801z"/>
  <path d="m235.41 531.39h-29.598c-1.9648 0-3.8438 0.78125-5.2344 2.168-1.3867 1.3867-2.168 3.2695-2.1641 5.2305v29.602c-0.003906 1.9609 0.77734 3.8438 2.1641 5.2305 1.3906 1.3906 3.2695 2.168 5.2344 2.168h29.598c1.9648 0 3.8477-0.77734 5.2344-2.168 1.3867-1.3867 2.168-3.2695 2.168-5.2305v-29.602c0-1.9609-0.78125-3.8438-2.168-5.2305s-3.2695-2.168-5.2344-2.168zm-7.3984 29.598h-14.801v-14.797h14.801z"/>
  <path d="m272.41 427.8h162.79v14.801h-162.79z"/>
  <path d="m272.41 487h162.79v14.801h-162.79z"/>
  <path d="m272.41 546.2h162.79v14.801h-162.79z"/>
  <path d="m600.33 302.39-17.141-5.7148v-24.266c-0.003906-5.8867-2.3438-11.527-6.5078-15.691-4.1602-4.1602-9.8047-6.5-15.691-6.5078h-14.797c-5.8867 0.007813-11.527 2.3477-15.691 6.5078-4.1602 4.1641-6.5039 9.8047-6.5078 15.691v251.59c0.019531 1.1445 0.30859 2.2656 0.84766 3.2773l-0.066406 0.035156 22.199 44.398v-0.003906c1.2539 2.5078 3.8164 4.0898 6.6172 4.0898 2.8047 0 5.3672-1.582 6.6211-4.0898l22.199-44.398-0.066406-0.035157-0.003906 0.003907c0.53906-1.0117 0.82812-2.1328 0.84766-3.2773v-211.73l7.3984 2.4688 0.003906 61.262h14.801l-0.003906-66.598c0.003906-3.1836-2.0352-6.0117-5.0586-7.0156zm-61.539-0.38281h29.598l0.003906 214.59h-29.602zm7.3984-37h14.801v0.003906c4.0859 0.003907 7.3984 3.3125 7.4023 7.3984v14.801l-29.602-0.003906v-14.797c0.007812-4.0859 3.3164-7.3945 7.4023-7.3984zm7.3984 286.84-10.223-20.449h20.449z"/>
 </g>
</svg>
