<?xml version="1.0" encoding="UTF-8"?>
<svg width="752pt" height="752pt" version="1.1" viewBox="0 0 752 752" xmlns="http://www.w3.org/2000/svg">
 <defs>
  <clipPath id="a">
   <path d="m139.21 150h473.58v452h-473.58z"/>
  </clipPath>
 </defs>
 <g clip-path="url(#a)">
  <path d="m612.21 359.79c-0.33984-4.7422-2.7617-9.0469-6.6445-11.809-3.9141-2.7852-8.8125-3.668-13.449-2.4258l-6.8438 1.8359c-12.551 3.3633-25.492-4.1094-28.855-16.656-1.6289-6.0781-0.79297-12.43 2.3516-17.875 3.1484-5.4492 8.2266-9.3477 14.305-10.977l6.9102-1.8516c4.6367-1.2422 8.4375-4.4609 10.434-8.8242 1.9805-4.332 1.9258-9.2656-0.14453-13.535-4.7109-9.7109-10.184-19.172-16.262-28.117-2.6719-3.9297-6.9258-6.4414-11.672-6.8906-4.7734-0.44922-9.4531 1.2344-12.844 4.6211l-5.0391 5.0391c-4.4492 4.4492-10.367 6.8984-16.656 6.8984-6.293 0-12.207-2.4492-16.656-6.9023-4.4492-4.4492-6.9023-10.367-6.9023-16.656 0-6.293 2.4492-12.207 6.9023-16.656l5.0391-5.0391c3.3867-3.3867 5.0703-8.0703 4.6211-12.844-0.44922-4.7461-2.9609-9-6.8906-11.668-8.9453-6.082-18.406-11.551-28.117-16.262-4.2734-2.0742-9.2031-2.125-13.535-0.14453-4.3672 1.9961-7.582 5.7969-8.8242 10.434l-1.8516 6.9102c-1.6289 6.0781-5.5273 11.16-10.977 14.305s-11.797 3.9805-17.875 2.3555c-6.0781-1.6289-11.16-5.5273-14.305-10.977-3.1484-5.4492-3.9805-11.797-2.3516-17.875l1.8359-6.8438c1.2422-4.6367 0.35547-9.5352-2.4258-13.449-2.7656-3.8828-7.0703-6.3047-11.809-6.6445-5.375-0.40234-10.828-0.59766-16.219-0.59766h-208.24c-22.066 0-40.016 17.949-40.016 40.016v294.11c0 22.066 17.949 40.016 40.016 40.016h143.31v46.594c-23.852 0.054688-45.137 0.13281-45.137 0.13281-2.0703 0.007813-3.7461 1.6875-3.7461 3.7578v22.277c0 1 0.39844 1.957 1.1055 2.6641 0.70312 0.70312 1.6602 1.0938 2.6523 1.0938h0.015626c41.766-0.15234 104.83-0.28906 109.45-0.046875 0.19141 0.03125 0.38672 0.046875 0.58594 0.046875 5.375 0 10.832-0.19531 16.211-0.57812 4.7383-0.33984 9.043-2.7617 11.809-6.6484 2.7852-3.9102 3.668-8.8125 2.4258-13.449l-1.8359-6.8438c-1.6289-6.0781-0.79297-12.426 2.3516-17.875s8.2266-9.3477 14.305-10.977c6.0781-1.6289 12.426-0.79297 17.875 2.3555 5.4492 3.1484 9.3477 8.2266 10.977 14.305l1.8516 6.9102c1.2422 4.6367 4.457 8.4375 8.8242 10.434 4.332 1.9805 9.2656 1.9258 13.535-0.14453 9.7109-4.7109 19.172-10.184 28.117-16.262 3.9297-2.6719 6.4414-6.9258 6.8906-11.672 0.44922-4.7734-1.2344-9.4531-4.6211-12.844l-5.0391-5.0391c-4.4492-4.4492-6.8984-10.367-6.8984-16.66s2.4492-12.207 6.9023-16.66c4.4492-4.4492 10.367-6.8984 16.656-6.8984 6.293 0 12.207 2.4492 16.66 6.8984l5.0391 5.0391c3.3906 3.3906 8.0703 5.0781 12.844 4.6211 4.7461-0.44922 9-2.957 11.668-6.8906 6.082-8.9453 11.551-18.406 16.262-28.117 2.0703-4.2695 2.125-9.2031 0.14453-13.535-1.9961-4.3672-5.7969-7.582-10.434-8.8242l-6.9102-1.8516c-12.547-3.3633-20.02-16.309-16.66-28.855 1.6289-6.0781 5.5273-11.16 10.977-14.305 5.4492-3.1484 11.801-3.9805 17.875-2.3516l6.8438 1.832c4.6367 1.2422 9.5391 0.35547 13.449-2.4258 3.8828-2.7656 6.3047-7.0703 6.6445-11.809 0.78516-10.754 0.78516-21.664 0.015625-32.418zm-220.99 105.57v-40.211c11.941-0.22266 22.855-1.3828 32.637-3.0664-5.1562 22.137-12.535 36.547-14.859 40.734-5.7266 1.4219-11.676 2.293-17.777 2.543zm83.066-67.828c-4.1914 2.3242-18.602 9.7031-40.738 14.859 1.6836-9.7812 2.8438-20.699 3.0664-32.641h40.215c-0.25391 6.1055-1.1211 12.051-2.543 17.781zm-118.52-105.19c-3.7852 7.918-9.1445 21.195-12.938 39.023-17.828 3.793-31.102 9.1523-39.02 12.938 9.0742-23.871 28.086-42.887 51.957-51.961zm-4.5117-59.598c-6.3672 0-11.551-5.1797-11.551-11.551 0-6.3672 5.1797-11.551 11.551-11.551 6.3672 0 11.551 5.1797 11.551 11.551s-5.1797 11.551-11.551 11.551zm32.445 53.879v40.203c-12.008 0.18359-22.961 1.3125-32.75 2.9844 5.1523-22.199 12.613-36.504 14.953-40.641 5.7305-1.4219 11.684-2.293 17.797-2.5469zm-83.062 67.809c4.1289-2.3438 18.406-9.8125 40.641-14.965-1.6719 9.7969-2.8047 20.754-2.9844 32.766h-40.203c0.25391-6.1094 1.1211-12.066 2.5469-17.801zm-2.5469 25.316h40.211c0.22266 11.996 1.3906 22.961 3.0898 32.777-22.262-5.1562-36.609-12.633-40.754-14.977-1.4258-5.7344-2.293-11.688-2.5469-17.801zm47.73 0h37.879v37.887c-12.68-0.20312-24.168-1.5312-34.305-3.4336-1.9414-10.195-3.3242-21.738-3.5742-34.453zm-0.007813-7.5156c0.20313-12.734 1.543-24.273 3.4609-34.441 10.156-1.9102 21.688-3.2383 34.426-3.4453v37.887zm-2.8516 48.414c3.8164 17.797 9.1523 31.102 12.895 39.027-23.914-9.0625-42.961-28.09-52.047-51.992 7.9375 3.793 21.262 9.1719 39.152 12.965zm22.957 42.168c-2.3203-4.1875-9.6758-18.555-14.832-40.621 9.7578 1.6562 20.66 2.7773 32.613 2.9609v40.203c-6.1055-0.25-12.051-1.1211-17.781-2.543zm25.297-83.066h37.879c-0.25 12.66-1.6211 24.164-3.5508 34.328-10.164 1.9297-21.664 3.3008-34.328 3.5508zm85.609-7.5156h-40.203c-0.17969-11.953-1.3047-22.855-2.9609-32.609 22.07 5.1562 36.438 12.512 40.621 14.832 1.4219 5.7266 2.2891 11.676 2.543 17.777zm-47.723 0h-37.887v-37.879c12.719 0.25 24.266 1.6328 34.465 3.5781 1.8984 10.129 3.2188 21.613 3.4219 34.301zm-66.387-90.008c-0.097656 0.019531-0.19531 0.050781-0.29297 0.078125-2.5117 0.67188-4.9805 1.4414-7.4062 2.3047v-44.719c8.7188-1.75 15.309-9.4648 15.309-18.691 0-10.516-8.5547-19.066-19.066-19.066s-19.066 8.5547-19.066 19.066c0 9.2266 6.5898 16.941 15.309 18.691v47.758c-8.6797 3.9414-16.68 9.1289-23.773 15.328l-0.003906-60.043c0-1.7344-1.1836-3.2422-2.8672-3.6523l-70.918-17.309c0.011719-0.25781 0.039063-0.51172 0.039063-0.77344 0-10.516-8.5547-19.066-19.066-19.066-10.516 0-19.066 8.5547-19.066 19.066 0 10.516 8.5547 19.066 19.066 19.066 7.625 0 14.195-4.5078 17.246-10.988l68.051 16.609v64.41c-5.5 5.957-10.266 12.602-14.145 19.793l-52.238-17.32c0.09375-0.75781 0.15234-1.5273 0.15234-2.3125 0-10.516-8.5547-19.066-19.066-19.066-10.516 0-19.066 8.5547-19.066 19.066 0 10.512 8.5547 19.066 19.066 19.066 7.0742 0 13.25-3.8828 16.539-9.6211l51.273 17.004c-1.9961 4.5156-3.6562 9.207-4.9531 14.051-0.027344 0.10156-0.0625 0.19922-0.082032 0.30469-2.0859 7.9023-3.2031 16.191-3.2031 24.738 0 3.8477 0.23047 7.6406 0.67187 11.371l-53.91 15.551c-1.6094 0.46484-2.7148 1.9375-2.7148 3.6133v23.824c-8.7188 1.75-15.309 9.4648-15.309 18.691 0 10.516 8.5547 19.066 19.066 19.066 10.516 0 19.066-8.5547 19.066-19.066 0-9.2266-6.5898-16.941-15.309-18.691v-20.996l50.289-14.504c0.39453 1.9844 0.84375 3.9453 1.3555 5.8828 0.019531 0.10547 0.054687 0.20703 0.082031 0.30859 8.9141 33.312 35.168 59.609 68.457 68.586 0.15625 0.054688 0.32031 0.097657 0.48047 0.12891 6.7383 1.7812 13.762 2.8477 20.988 3.125v14.551l-205.82-0.003907v-299.4h205.82v91.07c-7.2227 0.27734-14.246 1.3438-20.984 3.1211zm-131.8-49.48c-6.3672 0-11.551-5.1797-11.551-11.551 0-6.3672 5.1797-11.551 11.551-11.551 6.3672 0 11.551 5.1797 11.551 11.551s-5.1797 11.551-11.551 11.551zm0 89.258c-6.3672 0-11.551-5.1797-11.551-11.551 0-6.3672 5.1797-11.551 11.551-11.551 6.3672 0 11.551 5.1797 11.551 11.551 0 6.3711-5.1797 11.551-11.551 11.551zm7.3789 115.49c6.3672 0 11.551 5.1797 11.551 11.551 0 6.3672-5.1797 11.551-11.551 11.551-6.3672 0-11.551-5.1836-11.551-11.551 0-6.3711 5.1797-11.551 11.551-11.551zm145.48 160.82c-0.003906-0.023437-0.007812-0.042968-0.011719-0.066406 0 0.011719 0.007813 0.023438 0.007813 0.03125 0 0.011719 0 0.023438 0.003906 0.035156zm0.054688 0.18359c0.007812 0.039063 0.019531 0.078125 0.03125 0.11328-0.019532-0.070313-0.042969-0.13672-0.058594-0.20703 0.007812 0.035156 0.019531 0.0625 0.027344 0.09375zm0.14062 0.44922c0.007813 0.019531 0.011719 0.039063 0.019532 0.054687-0.019532-0.042968-0.035156-0.085937-0.050782-0.12891 0.003907 0.027344 0.019532 0.050782 0.03125 0.074219zm0.10938 0.23828c0.011718 0.023438 0.019531 0.046875 0.03125 0.070313-0.019532-0.042969-0.042969-0.082031-0.0625-0.125 0.011718 0.019531 0.023437 0.035156 0.03125 0.054687zm0.20312 0.375c0.011719 0.019532 0.019532 0.039063 0.03125 0.058594-0.035156-0.054688-0.070312-0.10547-0.10156-0.16406 0.019531 0.035156 0.046875 0.066406 0.070312 0.10547zm0.15234 0.21875s0 0.003906 0.003906 0.003906c0 0-0.003906-0.003906-0.003906-0.007812-0.003906 0.003906 0 0.003906 0 0.003906zm0.78125 0.78906c0.015625 0.011719 0.03125 0.027343 0.050782 0.039062-0.082032-0.0625-0.16797-0.12109-0.25-0.1875 0.0625 0.054688 0.13281 0.097657 0.19922 0.14844zm0.63672 0.38672c0.027344 0.011718 0.050781 0.027343 0.074219 0.042968-0.14453-0.0625-0.28125-0.13281-0.41797-0.21484 0.10938 0.0625 0.22656 0.11328 0.34375 0.17188zm46.125-180.44c17.863-3.8203 31.219-9.1719 39.16-12.922-9.0742 23.945-28.137 43.008-52.082 52.082 3.7539-7.9414 9.1016-21.297 12.922-39.16zm0.13281-89.016c-3.7969-17.895-9.1719-31.219-12.965-39.152 23.902 9.0859 42.934 28.133 51.992 52.051-7.9219-3.7461-21.227-9.082-39.027-12.898zm-23.094-42.324c2.3477 4.1328 9.8398 18.457 14.992 40.758-9.8203-1.6992-20.793-2.8711-32.793-3.0938v-40.215c6.1094 0.25391 12.066 1.125 17.801 2.5508zm-262.3 195.61v-294.11c0-17.918 14.582-32.5 32.5-32.5h204.48v22.336h-209.57c-2.0742 0-3.7578 1.6836-3.7578 3.7578v306.92c0 2.0742 1.6836 3.7578 3.7578 3.7578h209.57v22.336l-204.48 0.003906c-17.918 0-32.5-14.578-32.5-32.5zm183.33 40.016h53.648v46.617c-0.33203-0.003907-0.67969-0.007813-1.0508-0.007813-3.043-0.027344-7.3672-0.046875-12.547-0.054687-9.1484-0.015626-21.875-0.007813-37.824 0.019531-0.74219 0-1.4844 0.003906-2.2227 0.003906zm40.047 68.832c-9.1484-0.015625-21.875-0.007812-37.824 0.019531-21.352 0.039063-42.672 0.10938-51.105 0.13672v-14.762c37.293-0.13281 88.867-0.24219 102.53-0.097656v14.762c-0.33203-0.003906-0.67969-0.007813-1.0508-0.007813-3.0469-0.023437-7.3711-0.042968-12.551-0.050781zm14.48 6.3398c0.039062 0.046875 0.082031 0.082031 0.12109 0.125 0.015625 0.015625 0.023438 0.03125 0.039063 0.046875-0.054688-0.058594-0.10938-0.11328-0.16016-0.17188zm1.4531 1.0664c-0.003906 0-0.011718-0.003906-0.015624-0.007812 0.007812 0.003906 0.011718 0.007812 0.015624 0.007812zm0.62891 0.19531c-0.20703-0.039063-0.41016-0.10547-0.61328-0.1875 0.19531 0.078125 0.39844 0.14062 0.61328 0.1875zm218.05-209.57c-0.17969 2.4961-1.457 4.7617-3.5078 6.2227-2.0781 1.4805-4.6797 1.9492-7.1445 1.2891l-6.8438-1.832c-8.0195-2.1484-16.391-1.0469-23.582 3.1055-7.1875 4.1523-12.332 10.852-14.48 18.871-4.4336 16.551 5.4219 33.625 21.973 38.059l6.9102 1.8516c2.4609 0.66016 4.4805 2.3672 5.543 4.6875 1.043 2.2852 1.0195 4.8828-0.070312 7.1328-4.5508 9.3828-9.8398 18.527-15.715 27.172-1.4102 2.0703-3.6523 3.3945-6.1602 3.6328-2.5391 0.23828-5.0195-0.65625-6.8203-2.4531l-5.0391-5.0391c-5.8711-5.8711-13.672-9.1016-21.973-9.1016-8.3008 0-16.105 3.2305-21.973 9.1016-5.8711 5.8672-9.1016 13.672-9.1016 21.973 0 8.3008 3.2305 16.105 9.1016 21.973l5.0391 5.0391c1.8008 1.8008 2.6914 4.2852 2.4531 6.8203-0.23828 2.5078-1.5625 4.7539-3.6328 6.1602-8.6445 5.875-17.785 11.164-27.172 15.719-2.2461 1.0898-4.8438 1.1172-7.1289 0.070312-2.3203-1.0625-4.0312-3.082-4.6875-5.543l-1.8516-6.9102c-2.1484-8.0195-7.2891-14.719-14.48-18.871-7.1875-4.1484-15.562-5.2539-23.582-3.1055-8.0195 2.1484-14.719 7.2891-18.871 14.477-4.1523 7.1875-5.2539 15.562-3.1055 23.582l1.8359 6.8438c0.66016 2.4609 0.1875 5.0664-1.2891 7.1445-1.4609 2.0508-3.7305 3.3281-6.2227 3.5078-3.9531 0.28125-7.9453 0.45703-11.914 0.52734v-120.89c7.2188-0.27734 14.238-1.3438 20.973-3.1211 0.17188-0.035156 0.34375-0.078125 0.50781-0.13672 33.281-8.9805 59.523-35.27 68.441-68.578 0.027344-0.09375 0.058594-0.1875 0.078125-0.28516 2.0898-7.9102 3.2109-16.211 3.2109-24.77 0-8.5547-1.1172-16.855-3.207-24.762-0.019531-0.10156-0.050781-0.19922-0.082031-0.29688-8.9336-33.371-35.27-59.699-68.645-68.629-0.097656-0.027344-0.19531-0.058594-0.29297-0.078125-6.7383-1.7812-13.762-2.8477-20.984-3.125l-0.003906-120.89c3.9766 0.070313 7.9688 0.24609 11.914 0.52734 2.4961 0.17969 4.7656 1.457 6.2227 3.5078 1.4805 2.0781 1.9492 4.6797 1.2891 7.1445l-1.8359 6.8438c-4.4336 16.551 5.4219 33.625 21.973 38.059 16.555 4.4336 33.625-5.4219 38.059-21.973l1.8516-6.9102c0.66016-2.4609 2.3672-4.4805 4.6875-5.543 2.2852-1.043 4.8867-1.0195 7.1328 0.070313 9.3828 4.5508 18.527 9.8398 27.172 15.715 2.0703 1.4102 3.3945 3.6523 3.6328 6.1602 0.23828 2.5352-0.65625 5.0195-2.4531 6.8203l-5.0391 5.0391c-5.8711 5.8711-9.1016 13.672-9.1016 21.973s3.2305 16.105 9.1016 21.973c5.8711 5.8672 13.672 9.1016 21.973 9.1016s16.105-3.2305 21.973-9.1016l5.0391-5.0391c1.8008-1.8008 4.2891-2.6875 6.8203-2.4531 2.5078 0.23828 4.7539 1.5625 6.1602 3.6328 5.875 8.6445 11.164 17.789 15.715 27.172 1.0898 2.2461 1.1172 4.8438 0.070313 7.1289-1.0586 2.3203-3.082 4.0273-5.543 4.6875l-6.9102 1.8516c-8.0195 2.1484-14.719 7.2891-18.871 14.48-4.1523 7.1875-5.2539 15.562-3.1055 23.582 4.4336 16.551 21.508 26.41 38.059 21.973l6.8438-1.8359c2.4609-0.66016 5.0664-0.1875 7.1445 1.2891 2.0508 1.4609 3.3281 3.7305 3.5078 6.2227 0.76172 10.406 0.76172 20.953 0.015625 31.355z" fill="#1170a1"/>
 </g>
</svg>
