<?xml version="1.0" encoding="UTF-8"?>
<svg width="752pt" height="752pt" version="1.1" viewBox="0 0 752 752" xmlns="http://www.w3.org/2000/svg">
 <path d="m524 263.24c0-3.8867-3.1562-7.0469-7.0469-7.0469h-281.89c-3.8906 0-7.0469 3.1602-7.0469 7.0469v225.52c0 3.8906 3.1562 7.0469 7.0469 7.0469h281.89c3.8906 0 7.0469-3.1562 7.0469-7.0469zm-14.094 7.0508v211.42h-267.8v-211.42zm-176.18 155.04h-56.379c-3.8906 0-7.0469 3.1562-7.0469 7.0469s3.1562 7.0469 7.0469 7.0469h56.379c3.8906 0 7.0469-3.1562 7.0469-7.0469s-3.1562-7.0469-7.0469-7.0469zm77.52-47.105v54.152c0 2.4414 1.2695 4.707 3.3398 5.9922 2.0859 1.2812 4.6797 1.4102 6.8633 0.30859l25.035-12.516 25.031 12.516c2.1836 1.1016 4.7773 0.97266 6.8633-0.30859 2.0703-1.2852 3.3398-3.5508 3.3398-5.9922v-54.152c4.4531-6.6914 7.0469-14.727 7.0469-23.367 0-23.34-18.941-42.285-42.281-42.285-23.344 0-42.285 18.945-42.285 42.285 0 8.6406 2.5938 16.676 7.0469 23.367zm14.094 13.25v29.5l17.984-8.9922c1.9883-1 4.3281-1 6.3164 0l17.984 8.9922v-29.5c-6.2148 3.6094-13.445 5.668-21.141 5.668-7.6992 0-14.93-2.0586-21.145-5.668zm-49.332 5.668h-98.66c-3.8906 0-7.0469 3.1562-7.0469 7.0469s3.1562 7.0469 7.0469 7.0469h98.66c3.8906 0 7.0469-3.1562 7.0469-7.0469s-3.1562-7.0469-7.0469-7.0469zm70.477-70.473c15.559 0 28.188 12.629 28.188 28.188 0 15.562-12.629 28.191-28.188 28.191-15.562 0-28.191-12.629-28.191-28.191 0-15.559 12.629-28.188 28.191-28.188zm-70.477 42.281h-98.66c-3.8906 0-7.0469 3.1602-7.0469 7.0469 0 3.8906 3.1562 7.0508 7.0469 7.0508h98.66c3.8906 0 7.0469-3.1602 7.0469-7.0508 0-3.8867-3.1562-7.0469-7.0469-7.0469zm0-28.188h-98.66c-3.8906 0-7.0469 3.1562-7.0469 7.0469s3.1562 7.0469 7.0469 7.0469h98.66c3.8906 0 7.0469-3.1562 7.0469-7.0469s-3.1562-7.0469-7.0469-7.0469zm0-28.191h-98.66c-3.8906 0-7.0469 3.1602-7.0469 7.0469 0 3.8906 3.1562 7.0508 7.0469 7.0508h98.66c3.8906 0 7.0469-3.1602 7.0469-7.0508 0-3.8867-3.1562-7.0469-7.0469-7.0469z" fill="#1170a1" fill-rule="evenodd"/>
</svg>
